<svg xmlns="http://www.w3.org/2000/svg" viewBox="0 0 32 32" id="agile">
  <g>
    <path fill="#4c46c8" d="M14.394,6.02l.313-.313a1,1,0,1,0-1.414-1.414l-2,2a1,1,0,0,0,0,1.414l2,2a1,1,0,0,0,1.414-1.414l-.271-.271A8.994,8.994,0,0,1,14,26H3a1,1,0,0,0,0,2H14a10.993,10.993,0,0,0,.394-21.98Z"></path>
    <path fill="#13104c" d="M29.707 26.293l-2-2a1 1 0 00-1.414 1.414l.293.293H23a1 1 0 000 2h3.586l-.293.293a1 1 0 101.414 1.414l2-2A1 1 0 0029.707 26.293zM6.011 24a1 1 0 00.8-1.6A8.9 8.9 0 015 17 9 9 0 019.5 9.217a1 1 0 00-1-1.734A11.007 11.007 0 003 17a10.883 10.883 0 002.211 6.6A1 1 0 006.011 24z"></path>
  </g>
</svg>
