<svg xmlns="http://www.w3.org/2000/svg" enable-background="new 0 0 24 24" viewBox="0 0 24 24" id="webpack">
  <polygon points="2.371 6.006 2.372 6.005 2.371 6.005"></polygon>
  <polygon fill="#1B75BB" points="18.104 8.185 12.002 4.883 5.898 8.185 12.002 11.651 18.104 8.185"></polygon>
  <polygon fill="#1866A3" points="12 4.884 5.898 8.185 12 11.65 12 4.884"></polygon>
  <polygon fill="#8AD0F3" points="11.568 19.714 5.404 16.38 1.677 18.498 11.568 24 11.568 19.714"></polygon>
  <polygon fill="#8AD0F3" points="5.019 7.685 11.565 4.143 11.565 0 1.425 5.644 5.019 7.685"></polygon>
  <polygon fill="#1B75BB" points="11.568 12.392 5.488 8.939 5.488 15.452 11.568 18.74 11.568 12.392"></polygon>
  <polygon fill="#78B5D4" points="5.404 16.38 1.677 18.498 8.371 22.222 8.371 17.985 5.404 16.38"></polygon>
  <polygon fill="#78B5D4" points="8.371 1.778 1.425 5.644 5.019 7.685 8.371 5.872 8.371 1.778"></polygon>
  <polygon fill="#1866A3" points="5.488 8.939 5.488 15.452 8.371 17.011 8.371 10.576 5.488 8.939"></polygon>
  <polygon fill="#8AD0F3" points="1 17.896 4.619 15.839 4.619 8.443 1 6.389 1 17.896"></polygon>
  <polygon fill="#78B5D4" points="1 6.389 1 17.896 2.81 16.867 2.81 7.417 1 6.389"></polygon>
  <polygon fill="#1B75BB" points="12.435 18.74 18.514 15.452 18.514 8.939 12.435 12.392 12.435 18.74"></polygon>
  <polygon fill="#8AD0F3" points="18.597 16.38 12.435 19.714 12.435 24 22.324 18.498 18.597 16.38"></polygon>
  <polygon fill="#8AD0F3" points="12.435 4.143 18.982 7.688 22.576 5.644 12.435 0 12.435 4.143"></polygon>
  <polygon fill="#1866A3" points="15.474 10.665 12.435 12.392 12.435 18.74 15.474 17.096 15.474 10.665"></polygon>
  <polygon fill="#78B5D4" points="15.474 18.07 12.435 19.714 12.435 24 15.474 22.309 15.474 18.07"></polygon>
  <polygon fill="#78B5D4" points="12.435 0 12.435 4.143 15.474 5.789 15.474 1.691 12.435 0"></polygon>
  <polygon fill="#8AD0F3" points="23 6.389 19.381 8.443 19.381 15.839 23 17.896 23 6.389"></polygon>
  <polygon fill="#78B5D4" points="21.191 7.416 19.381 8.443 19.381 15.839 21.191 16.867 21.191 7.416"></polygon>
</svg>
